<?xml version="1.0" encoding="UTF-8" standalone="no"?>
<svg
   enable-background="new 0 0 512 512"
   height="500"
   id="Layer_1"
   version="1.1"
   viewBox="0 0 750 500"
   width="750"
   xml:space="preserve"
   sodipodi:docname="nortfolio_in.svg"
   inkscape:version="1.2.2 (732a01da63, 2022-12-09, custom)"
   inkscape:export-filename="../979da312/nortfolio_in.png"
   inkscape:export-xdpi="96"
   inkscape:export-ydpi="96"
   xmlns:inkscape="http://www.inkscape.org/namespaces/inkscape"
   xmlns:sodipodi="http://sodipodi.sourceforge.net/DTD/sodipodi-0.dtd"
   xmlns="http://www.w3.org/2000/svg"
   xmlns:svg="http://www.w3.org/2000/svg"
   xmlns:rdf="http://www.w3.org/1999/02/22-rdf-syntax-ns#"
   xmlns:cc="http://creativecommons.org/ns#"
   xmlns:dc="http://purl.org/dc/elements/1.1/"><metadata
     id="metadata14"><rdf:RDF><cc:Work
         rdf:about=""><dc:format>image/svg+xml</dc:format><dc:type
           rdf:resource="http://purl.org/dc/dcmitype/StillImage" /></cc:Work></rdf:RDF></metadata><defs
     id="defs12"><inkscape:path-effect
       effect="fillet_chamfer"
       id="path-effect1084"
       is_visible="true"
       lpeversion="1"
       satellites_param="F,0,0,1,0,12.134093,0,1 @ F,0,0,1,0,8,0,1 @ F,0,0,1,0,8,0,1"
       unit="px"
       method="auto"
       mode="F"
       radius="8"
       chamfer_steps="1"
       flexible="false"
       use_knot_distance="true"
       apply_no_radius="true"
       apply_with_radius="true"
       only_selected="false"
       hide_knots="false"
       nodesatellites_param="F,0,0,1,0,12.134093,0,1 @ F,0,0,1,0,8,0,1 @ F,0,0,1,0,8,0,1" /></defs><sodipodi:namedview
     pagecolor="#ffffff"
     bordercolor="#666666"
     borderopacity="1"
     objecttolerance="10"
     gridtolerance="10"
     guidetolerance="10"
     inkscape:pageopacity="0"
     inkscape:pageshadow="2"
     inkscape:window-width="1920"
     inkscape:window-height="1017"
     id="namedview10"
     showgrid="false"
     inkscape:zoom="0.5234375"
     inkscape:cx="369.67164"
     inkscape:cy="402.14925"
     inkscape:current-layer="Layer_1"
     inkscape:pagecheckerboard="0"
     inkscape:showpageshadow="2"
     inkscape:deskcolor="#d1d1d1"
     inkscape:window-x="3840"
     inkscape:window-y="0"
     inkscape:window-maximized="1" /><linearGradient
     gradientTransform="matrix(1.1111665,0,0,-1.1111665,-50.238943,322.87192)"
     gradientUnits="userSpaceOnUse"
     id="SVGID_1_"
     x1="97.441902"
     x2="513.18268"
     y1="293.25851"
     y2="-122.4817"><stop
       offset="0"
       style="stop-color:#3B5998"
       id="stop2" /><stop
       offset="1"
       style="stop-color:#336699"
       id="stop4" /></linearGradient><rect
     style="fill:#2e3436;stroke:none;stroke-width:1.96932"
     id="rect550"
     width="750"
     height="500"
     x="0"
     y="0" /><path
     id="path889"
     style="color:#000000;fill:#b2b2b2;fill-opacity:1;stroke-width:0.497675;stroke-linecap:round;stroke-linejoin:round;-inkscape-stroke:none"
     d="m 275.62401,147.89361 a 22.460913,22.460913 0 0 0 -15.90981,6.51211 22.460913,22.460913 0 0 0 -0.13161,31.76405 l 63.04946,63.57784 -62.26177,62.31441 a 22.460913,22.460913 0 0 0 0.0137,31.76406 22.460913,22.460913 0 0 0 31.76407,-0.0126 l 78.0653,-78.13065 a 22.46316,22.46316 0 0 0 0.0594,-31.69095 l -78.79354,-79.45354 a 22.460913,22.460913 0 0 0 -15.85522,-6.64469 z M 373.018,307.18476 a 22.460913,22.460913 0 0 0 -22.46091,22.46092 22.460913,22.460913 0 0 0 22.46091,22.46091 h 101.45138 a 22.460913,22.460913 0 0 0 22.46091,-22.46091 22.460913,22.460913 0 0 0 -22.46091,-22.46092 z" /></svg>
