<svg xmlns="http://www.w3.org/2000/svg" viewBox="0 0 500 500"><defs><style>.cls-1{fill:none;}.cls-2{fill:#649941;}</style></defs><g id="limit"><rect class="cls-1" width="500" height="500"/></g><g id="Mail"><path class="cls-2" d="M466.47,192.7a5.29,5.29,0,0,1,8.53,4.13V376.56a42.2,42.2,0,0,1-42.19,42.19H67.19A42.2,42.2,0,0,1,25,376.56V196.91a5.26,5.26,0,0,1,8.53-4.13C53.21,208.08,79.32,227.5,169,292.63c18.55,13.53,49.84,42,81,41.83,31.38.27,63.28-28.83,81.12-41.83C420.77,227.5,446.79,208,466.47,192.7ZM250,306.25c20.39.35,49.75-25.66,64.51-36.39,116.63-84.64,125.51-92,152.4-113.11A21,21,0,0,0,475,140.14v-16.7a42.2,42.2,0,0,0-42.19-42.19H67.19A42.2,42.2,0,0,0,25,123.44v16.7a21.16,21.16,0,0,0,8.09,16.61c26.89,21,35.77,28.47,152.4,113.11,14.76,10.73,44.12,36.74,64.51,36.39Z"/></g></svg>