<svg xmlns="http://www.w3.org/2000/svg" viewBox="0 0 500 500"><defs><style>.cls-1{fill:none;}.cls-2{fill:#00a69c;}</style></defs><g id="limit"><rect class="cls-1" width="500" height="500"/></g><g id="Astronomy"><path class="cls-2" d="M399.67,260.32c-20.72,25.05-44.15,50.79-69.44,76.08s-51,48.74-76.08,69.44c1.69.06,3.38.13,5.08.13A140.71,140.71,0,0,0,399.79,265.41C399.79,263.7,399.73,262,399.67,260.32Z"/><path class="cls-2" d="M458,66.63c-19.48-19.48-55.14-12.58-109,21.11a646.27,646.27,0,0,0-57.34,40.91A140.47,140.47,0,0,0,122.49,297.83a642.63,642.63,0,0,0-40.91,57.33c-33.69,53.9-40.6,89.56-21.14,109A38.08,38.08,0,0,0,88.62,475c20,0,46.79-10.59,80.84-31.88,44.16-27.61,96.21-70.53,146.56-120.88s93.27-102.39,120.87-146.55c33.69-53.9,40.6-89.56,21.14-109Zm-61.15,97C370.75,203.28,332,249.5,287.64,293.8S197.11,376.91,157.5,403.05c-39,25.72-60,31.55-67.72,31.82.27-7.72,6.1-28.73,31.82-67.72,5.7-8.64,12.05-17.6,18.87-26.78a141.82,141.82,0,0,0,26.92,31.3,928.62,928.62,0,0,0,106.05-92.06,929.59,929.59,0,0,0,92.07-106,141.75,141.75,0,0,0-31.32-26.94c9.18-6.83,18.15-13.16,26.79-18.86,39-25.72,60-31.55,67.71-31.82-.27,7.72-6.1,28.73-31.82,67.71Z"/><path class="cls-2" d="M41.26,105.32a50.26,50.26,0,0,1,50.2,50.2,10,10,0,0,0,20.08,0,50.26,50.26,0,0,1,50.2-50.2,10,10,0,0,0,0-20.08A50.26,50.26,0,0,1,111.54,35a10,10,0,0,0-20.08,0,50.26,50.26,0,0,1-50.2,50.2,10,10,0,0,0,0,20.08Z"/></g></svg>