<svg xmlns="http://www.w3.org/2000/svg" viewBox="0 0 500 500"><defs><style>.cls-1{fill:none;}.cls-2{fill:#649941;}</style></defs><g id="limit"><rect class="cls-1" width="500" height="500"/></g><g id="Nature"><path class="cls-2" d="M451.72,57.55c-4.38-9.77-16.88-10.16-22.11-.94C405.38,98.73,362,125,312.48,125H250A150.05,150.05,0,0,0,100,275a153.62,153.62,0,0,0,1.18,16C151,255.3,222.94,225,325,225a12.5,12.5,0,0,1,0,25C128.56,250,45.27,370.39,26.83,415.63a25,25,0,0,0,46.33,19c1.18-2.81,16.33-37.43,56.18-70.79,25.32,34.3,73.45,67,136.66,60.32,122.66-8.91,209-118.92,209-253.62C475,131.31,466.56,90.68,451.72,57.55Z"/></g></svg>