<svg xmlns="http://www.w3.org/2000/svg" viewBox="0 0 500 500"><defs><style>.cls-1{fill:none;}.cls-2{fill:#135a6e;}</style></defs><g id="limit"><rect class="cls-1" width="500" height="500"/></g><g id="Linkedin"><path class="cls-2" d="M442.86,25H57A32.27,32.27,0,0,0,25,57.44V442.56A32.27,32.27,0,0,0,57,475H442.86A32.36,32.36,0,0,0,475,442.56V57.44A32.36,32.36,0,0,0,442.86,25ZM161,410.71H94.31V196H161.1V410.71ZM127.66,166.63A38.67,38.67,0,1,1,166.33,128,38.69,38.69,0,0,1,127.66,166.63ZM411,410.71h-66.7V306.25c0-24.91-.5-56.95-34.65-56.95-34.76,0-40.08,27.12-40.08,55.14V410.71h-66.7V196h64v29.33h.9c8.94-16.87,30.74-34.65,63.18-34.65,67.5,0,80.06,44.49,80.06,102.35Z"/></g></svg>