<svg xmlns="http://www.w3.org/2000/svg" viewBox="0 0 500 500"><defs><style>.cls-1{fill:none;}.cls-2{fill:#1b75bb;}</style></defs><g id="limit"><rect class="cls-1" width="500" height="500"/></g><g id="Phone"><path class="cls-2" d="M348.44,25H151.56a42.2,42.2,0,0,0-42.18,42.19V432.81A42.2,42.2,0,0,0,151.56,475H348.44a42.2,42.2,0,0,0,42.19-42.19V67.19A42.2,42.2,0,0,0,348.44,25ZM250,446.88a28.13,28.13,0,1,1,28.13-28.13A28.09,28.09,0,0,1,250,446.88ZM348.44,352a10.58,10.58,0,0,1-10.55,10.55H162.11A10.58,10.58,0,0,1,151.56,352V77.73a10.58,10.58,0,0,1,10.55-10.54H337.89a10.58,10.58,0,0,1,10.55,10.54Z"/></g></svg>