<svg xmlns="http://www.w3.org/2000/svg" viewBox="0 0 500 500"><defs><style>.cls-1{fill:none;}.cls-2{fill:#a6a8ab;}</style></defs><g id="limit"><rect class="cls-1" width="500" height="500"/></g><g id="Cats"><path class="cls-2" d="M136.76,448.53C169.85,465.44,207,474.26,244.12,475H250a251.29,251.29,0,0,0,108.46-24.27c30.88-14.7,58.83-36.76,79.42-64.34a181.23,181.23,0,0,0,35.66-108.83V157.43c0-9.56,10-79.08,10-88.27a24.11,24.11,0,0,0-33.09-22.43l-93.83,94.89a23.36,23.36,0,0,1-17.28.37C312.13,131.33,282,125.81,250,125.81A252.24,252.24,0,0,0,160.66,142a23.36,23.36,0,0,1-17.28-.37L49.55,47.84C33.74,41.22,16.46,53,16.46,70.27c0,12.87,10,86.06,10,98.93V282.35a174.6,174.6,0,0,0,32.72,101.1C79,411,106.24,433.09,136.76,448.53ZM331.62,278.3a36.77,36.77,0,1,1-36.77,36.77A36.88,36.88,0,0,1,331.62,278.3Zm-163.24,0a36.77,36.77,0,1,1-36.77,36.77A36.88,36.88,0,0,1,168.38,278.3Z"/></g></svg>