<svg xmlns="http://www.w3.org/2000/svg" viewBox="0 0 500 500"><defs><style>.cls-1{fill:none;}.cls-2{fill:#d12f66;}</style></defs><g id="limit"><rect class="cls-1" width="500" height="500"/></g><g id="Instagram"><path class="cls-2" d="M473.43,157.29c-1.72-36-10.1-68-36.36-94.31s-58.19-34.54-94.24-36.36c-37.15-2.1-148.51-2.1-185.66,0-35.91,1.72-67.82,10-94.24,36.26s-34.54,58.19-36.36,94.24c-2.09,37.12-2.09,148.5,0,185.66,1.72,36,10,67.94,36.36,94.24s58.19,34.54,94.24,36.36c37.15,2.1,148.51,2.1,185.66,0,36-1.72,67.92-10.11,94.24-36.36s34.54-58.19,36.36-94.24C475.52,305.59,475.52,194.31,473.43,157.29Zm-223.19,208H250a115.19,115.19,0,1,1,.28,0ZM397,129.78a26.87,26.87,0,0,1-26.76,27h-.06l-.09-.05A26.92,26.92,0,1,1,397,129.76Z"/><path class="cls-2" d="M250,174.93a75,75,0,1,0,75,75A75,75,0,0,0,250,174.93Z"/></g></svg>