<svg xmlns="http://www.w3.org/2000/svg" viewBox="0 0 500 500"><defs><style>.cls-1{fill:none;}.cls-2{fill:#ae2435;}</style></defs><g id="limit"><rect class="cls-1" width="500" height="500"/></g><g id="Music"><path class="cls-2" d="M438.42,26.31,157.2,109.36a28.13,28.13,0,0,0-19.7,26.82V365.93a122.28,122.28,0,0,0-28.13-3.44C62.79,362.49,25,387.68,25,418.74S62.79,475,109.37,475s84.38-25.19,84.38-56.25V213.35l225-65.91V309.69a121.75,121.75,0,0,0-28.13-3.45c-46.58,0-84.37,25.19-84.37,56.25s37.79,56.25,84.37,56.25S475,393.56,475,362.49V53.11a28.13,28.13,0,0,0-36.58-26.8Z"/></g></svg>