<?xml version="1.0" encoding="UTF-8" standalone="no"?>
<svg
   xmlns:dc="http://purl.org/dc/elements/1.1/"
   xmlns:cc="http://creativecommons.org/ns#"
   xmlns:rdf="http://www.w3.org/1999/02/22-rdf-syntax-ns#"
   xmlns:svg="http://www.w3.org/2000/svg"
   xmlns="http://www.w3.org/2000/svg"
   xmlns:sodipodi="http://sodipodi.sourceforge.net/DTD/sodipodi-0.dtd"
   xmlns:inkscape="http://www.inkscape.org/namespaces/inkscape"
   aria-hidden="true"
   focusable="false"
   data-prefix="fas"
   data-icon="user-circle"
   class="svg-inline--fa fa-user-circle fa-w-16"
   role="img"
   viewBox="0 0 500 500"
   version="1.1"
   id="svg4"
   sodipodi:docname="Avatar.svg"
   width="500"
   height="500"
   inkscape:version="0.92.3 (2405546, 2018-03-11)">
  <metadata
     id="metadata10">
    <rdf:RDF>
      <cc:Work
         rdf:about="">
        <dc:format>image/svg+xml</dc:format>
        <dc:type
           rdf:resource="http://purl.org/dc/dcmitype/StillImage" />
        <dc:title></dc:title>
      </cc:Work>
    </rdf:RDF>
  </metadata>
  <defs
     id="defs8" />
  <sodipodi:namedview
     pagecolor="#ffffff"
     bordercolor="#666666"
     borderopacity="1"
     objecttolerance="10"
     gridtolerance="10"
     guidetolerance="10"
     inkscape:pageopacity="0"
     inkscape:pageshadow="2"
     inkscape:window-width="640"
     inkscape:window-height="480"
     id="namedview6"
     showgrid="false"
     inkscape:zoom="0.5234375"
     inkscape:cx="402.74627"
     inkscape:cy="168.1194"
     inkscape:current-layer="svg4" />
  <path
     d="M 250,5 C 114.65726,5 5,114.65726 5,250 5,385.34274 114.65726,495 250,495 385.34274,495 495,385.34274 495,250 495,114.65726 385.34274,5 250,5 Z m 0,94.838709 c 48.01209,0 86.93549,38.923381 86.93549,86.935471 0,48.0121 -38.9234,86.93549 -86.93549,86.93549 -48.01209,0 -86.93549,-38.92339 -86.93549,-86.93549 0,-48.01209 38.9234,-86.935471 86.93549,-86.935471 z m 0,339.838711 c -57.98993,0 -109.95363,-26.27824 -144.72781,-67.375 18.57258,-34.97177 54.92742,-59.0766 97.30846,-59.0766 2.37095,0 4.74193,0.39516 7.01412,1.08668 12.84273,4.1492 26.2782,6.81652 40.40523,6.81652 14.12703,0 27.66128,-2.66732 40.40523,-6.81652 2.27219,-0.69152 4.64317,-1.08668 7.01412,-1.08668 42.38104,0 78.73588,24.10483 97.30846,59.0766 -34.77418,41.09676 -86.73788,67.375 -144.72781,67.375 z"
     id="path2"
     inkscape:connector-curvature="0"
     style="fill:#808080;stroke-width:0.98790312" />
</svg>
