<?xml version="1.0" encoding="UTF-8" standalone="no"?>
<svg
   xmlns:dc="http://purl.org/dc/elements/1.1/"
   xmlns:cc="http://creativecommons.org/ns#"
   xmlns:rdf="http://www.w3.org/1999/02/22-rdf-syntax-ns#"
   xmlns:svg="http://www.w3.org/2000/svg"
   xmlns="http://www.w3.org/2000/svg"
   xmlns:sodipodi="http://sodipodi.sourceforge.net/DTD/sodipodi-0.dtd"
   xmlns:inkscape="http://www.inkscape.org/namespaces/inkscape"
   aria-hidden="true"
   focusable="false"
   data-prefix="fas"
   data-icon="user-circle"
   class="svg-inline--fa fa-user-circle fa-w-16"
   role="img"
   viewBox="0 0 500 500"
   version="1.1"
   id="svg4"
   sodipodi:docname="Thumb.svg"
   width="500"
   height="500"
   inkscape:version="0.92.3 (2405546, 2018-03-11)">
  <metadata
     id="metadata10">
    <rdf:RDF>
      <cc:Work
         rdf:about="">
        <dc:format>image/svg+xml</dc:format>
        <dc:type
           rdf:resource="http://purl.org/dc/dcmitype/StillImage" />
        <dc:title></dc:title>
      </cc:Work>
    </rdf:RDF>
  </metadata>
  <defs
     id="defs8" />
  <sodipodi:namedview
     pagecolor="#ffffff"
     bordercolor="#666666"
     borderopacity="1"
     objecttolerance="10"
     gridtolerance="10"
     guidetolerance="10"
     inkscape:pageopacity="0"
     inkscape:pageshadow="2"
     inkscape:window-width="640"
     inkscape:window-height="480"
     id="namedview6"
     showgrid="false"
     inkscape:zoom="0.74025241"
     inkscape:cx="139.9498"
     inkscape:cy="163.02598"
     inkscape:current-layer="svg4" />
  <path
     id="path831"
     d="m 490,145 v 270 c 0,24.84375 -20.15624,45 -45,45 H 55.000001 c -24.84375,0 -45,-20.15625 -45,-45 V 145 c 0,-24.84374 20.15625,-45 45,-45 H 137.5 l 11.53126,-30.843751 c 6.56249,-17.53125 23.34374,-29.15625 42.09374,-29.15625 h 117.65626 c 18.75001,0 35.53126,11.625 42.09375,29.15625 L 362.50001,100 H 445 c 24.84376,0 45,20.15626 45,45 z M 362.50001,280 c 0,-62.0625 -50.4375,-112.5 -112.5,-112.5 C 187.93751,167.5 137.5,217.9375 137.5,280 c 0,62.06249 50.43751,112.5 112.50001,112.5 62.0625,0 112.5,-50.43751 112.5,-112.5 z m -30,0 c 0,45.46874 -37.03125,82.5 -82.5,82.5 C 204.53126,362.5 167.5,325.46874 167.5,280 c 0,-45.46875 37.03126,-82.5 82.50001,-82.5 45.46875,0 82.5,37.03125 82.5,82.5 z"
     inkscape:connector-curvature="0"
     style="fill:#808080;stroke-width:0.9375" />
</svg>
