<svg xmlns="http://www.w3.org/2000/svg" viewBox="0 0 500 500"><defs><style>.cls-1{fill:none;}.cls-2,.cls-4{fill:#ff7c00;}.cls-3{fill:#261300;}.cls-4{fill-rule:evenodd;}</style></defs><g id="limit"><rect class="cls-1" width="500" height="500"/></g><g id="Illustrator"><g id="Layer_1"><rect class="cls-2" x="25" y="25" width="450" height="450"/><rect class="cls-3" x="62.71" y="62.71" width="374.57" height="374.58"/><g id="_1927324032" data-name=" 1927324032"><path class="cls-4" d="M326.73,205.25h35.54a1.66,1.66,0,0,1,1.65,1.67V353.7a1.66,1.66,0,0,1-1.65,1.67H326.73a1.66,1.66,0,0,1-1.65-1.67V206.92A1.66,1.66,0,0,1,326.73,205.25Z"/><ellipse class="cls-2" cx="344.5" cy="165.55" rx="20.64" ry="19.87"/></g><path class="cls-4" d="M248.28,302.88l14.57,48.54c.76,2.87,2.24,3.57,4.25,3.54h37.3c2.88,0,3.09-.85,2.65-2.78L245.43,145.39a.89.89,0,0,0-1-.64l-51.67-.15c-2,0-2.07,1.06-1.89,3,.64,7.2.29,11.24-1.23,16.89L135.12,352.3c-.59,1.78-.44,2.66,1.89,2.69l35.21,0c3.72-.12,3.92-1.14,4.56-3L189,302.88Zm-7.53-37.74H198l20.73-84.38Z"/></g></g></svg>