<svg xmlns="http://www.w3.org/2000/svg" viewBox="0 0 500 500"><defs><style>.cls-1{fill:none;}.cls-2,.cls-4{fill:#d573f7;}.cls-3{fill:#252653;}.cls-4{fill-rule:evenodd;}</style></defs><g id="limit"><rect class="cls-1" width="500" height="500"/></g><g id="Premiere"><g id="Layer_1"><rect class="cls-2" x="25" y="25" width="450" height="450"/><rect class="cls-3" x="62.71" y="62.71" width="374.57" height="374.58"/><path class="cls-4" d="M128.4,146.24V353.67l41,.06V288.31c14,0,28.55-.06,40.27-2.66C225.11,282.2,236,275.18,245.64,265c10.12-10.67,18-25.39,18-47.36,0-50.79-32.92-74.87-84.56-73.11Zm41,109.27.06-77.53c17.15-.35,32.1-.14,41.92,8.63,7.71,6.88,10.56,14.37,10.27,31.87C221.13,252.36,198.56,255.51,169.43,255.51Z"/><path class="cls-4" d="M284,237l.09,118.43,41,.2.11-101.81-.11-4.51c14.8-13.05,24.42-17.35,44.78-16.88,1.62.06,2.15.06,2.15-2V200.45c.11-5.29-1.05-6.7-7.07-6.49-16.14.53-20.79,1.84-32,11.38-2.39,2-9.45,10.56-9.45,10.56,0-10.36-2.3-17.35-5.15-19.45-2-1.44-2.47-1.32-5.32-1.32H307.6l-22.71-.32c-2.5.41-2.64,1-2.59,3.89C282.6,211.63,284,220.73,284,237Z"/></g></g></svg>