<svg xmlns="http://www.w3.org/2000/svg" viewBox="0 0 500 500"><defs><style>.cls-1{fill:none;}.cls-2{fill:#e2752b;}</style></defs><g id="limit"><rect class="cls-1" width="500" height="500"/></g><g id="MySql"><path class="cls-2" d="M387.58,402.64c-14.16-10.23-31.8-22.94-36.57-42.08a14.52,14.52,0,0,1,11.66-17.8c7.7-1.28,17.74-3.67,27.21-6.14-12.89-10.79-32.19-24.17-56-32.25a14.46,14.46,0,0,1-8.1-6.85c-2.71-5-5.72-11.9-9.18-19.84C299,237.27,267.8,165.8,191.51,144.26a27.69,27.69,0,0,1,8.74,20.21,14.49,14.49,0,0,1-28.93,1.16,14.48,14.48,0,0,1-6.77-26.57l-.27,0a14.58,14.58,0,0,1-6.63-2.45c-11.61-8-22.85-14-28.61-16.36,2.55,4.06,6.72,9.8,8.63,12.42,10,13.75,16.09,22.6,16.09,31.83,0,6.88,13.35,41.74,21.53,48.78a14.42,14.42,0,0,1,3.79,16.87c-1,2.17-1.94,4.23-2.89,6.23-5.43,11.44-9.15,19.29-9.15,41,0,14.88,4.22,24.68,8,29.17a145.49,145.49,0,0,0,2.91-29.17,14.44,14.44,0,0,1,12.21-14.32l.61-.09,1.67-.09a14.46,14.46,0,0,1,13.77,10c.16.47,17.21,50.82,47.72,72.35a14.5,14.5,0,0,1-16.7,23.7c-16.36-11.54-29.14-28.34-38.45-43.85-5.64,10.59-13.3,13.28-19.62,13.28-20.41,0-41.06-20.94-41.06-61,0-26.67,5.29-39.31,10.71-50.82-12.38-17.41-23.33-48.38-24-61-1.39-3.24-8.23-12.64-10.54-15.82-10-13.69-16-22.55-16-31.76,0-18.43,9.34-27.77,27.77-27.77,11.78,0,30.68,10.86,45,20.43,110.43,13.94,152,109.31,172,155.28,2.25,5.14,4.12,9.45,5.81,13.05,48.92,18.44,79.14,53.95,80.43,55.48a14.5,14.5,0,0,1-6.94,23.21c-2.12.63-17.63,5.25-33.67,9.17a185.83,185.83,0,0,0,15.86,12.3c6.69,4.83,13,9.52,18.42,14.72A224.05,224.05,0,0,0,475,250C475,125.74,374.26,25,250,25S25,125.74,25,250,125.74,475,250,475a223.94,223.94,0,0,0,152.94-60.3C399,410.9,393.43,406.86,387.58,402.64Z"/></g></svg>