<?xml version="1.0" encoding="UTF-8" standalone="no"?>
<svg
   viewBox="0 0 500 500"
   version="1.1"
   id="svg2"
   sodipodi:docname="lang_c2.svg"
   inkscape:version="1.4 (e7c3feb100, 2024-10-09)"
   xmlns:inkscape="http://www.inkscape.org/namespaces/inkscape"
   xmlns:sodipodi="http://sodipodi.sourceforge.net/DTD/sodipodi-0.dtd"
   xmlns="http://www.w3.org/2000/svg"
   xmlns:svg="http://www.w3.org/2000/svg">
  <sodipodi:namedview
     id="namedview2"
     pagecolor="#ffffff"
     bordercolor="#000000"
     borderopacity="0.25"
     inkscape:showpageshadow="2"
     inkscape:pageopacity="0.0"
     inkscape:pagecheckerboard="0"
     inkscape:deskcolor="#d1d1d1"
     inkscape:zoom="1"
     inkscape:cx="287"
     inkscape:cy="276"
     inkscape:current-layer="svg2" />
  <defs
     id="defs1">
    <style
       id="style1">.cls-1{fill:none;}.cls-2{fill:#929497;}</style>
  </defs>
  <g
     id="limit">
    <rect
       class="cls-1"
       width="500"
       height="500"
       id="rect1" />
  </g>
  <path
     id="path2"
     class="cls-2"
     d="M 73.210938 25 C 46.58596 25.01104 25.005518 46.595723 25 73.220703 L 25 426.7793 C 25.0055 453.40428 46.585959 474.98896 73.210938 475 L 426.78906 475 C 453.41404 474.989 474.99448 453.40428 475 426.7793 L 475 73.220703 C 474.99448 46.595723 453.41404 25.01104 426.78906 25 L 73.210938 25 z M 334.36914 135.65625 C 346.42202 135.65625 357.63094 137.98278 367.99219 142.63477 C 378.56489 147.28675 387.02161 154.26438 393.36523 163.56836 C 399.92031 172.87233 403.19922 184.50302 403.19922 198.45898 C 403.19922 208.39732 400.76579 218.01829 395.90234 227.32227 C 391.0389 236.41479 384.8018 245.19028 377.18945 253.64844 C 369.57711 261.89514 361.6471 269.93011 353.40039 277.75391 C 350.44004 280.50281 346.95122 283.88472 342.93359 287.90234 C 339.12742 291.70852 335.3218 295.726 331.51562 299.95508 C 327.92091 304.18416 324.85385 308.4135 322.31641 312.64258 C 319.99041 316.87166 318.82812 320.78419 318.82812 324.37891 L 413.03125 324.37891 L 413.03125 360.53711 L 269.66602 360.53711 C 268.8202 358.21112 268.50144 355.25097 268.71289 351.65625 C 268.92434 348.06153 269.03125 345.5251 269.03125 344.04492 C 269.03125 330.51186 271.77954 318.24756 277.27734 307.25195 C 282.9866 296.04489 290.07114 285.89526 298.5293 276.80273 C 306.98746 267.49876 315.33923 258.93317 323.58594 251.10938 C 329.92956 245.18866 335.7449 239.48022 341.03125 233.98242 C 346.52906 228.48462 350.86335 223.09299 354.03516 217.80664 C 357.20697 212.30883 358.79297 206.91721 358.79297 201.63086 C 358.79297 192.74979 356.04468 185.87711 350.54688 181.01367 C 345.04907 176.15023 338.17639 173.71875 329.92969 173.71875 C 325.48915 173.71875 320.73114 174.45732 315.65625 175.9375 C 310.79281 177.41767 305.82295 179.7442 300.74805 182.91602 C 295.67315 185.87637 290.70524 190.00076 285.8418 195.28711 L 264.27344 164.83594 C 270.61706 158.28086 277.59469 152.88924 285.20703 148.66016 C 293.03083 144.21962 301.1727 140.94267 309.63086 138.82812 C 318.08902 136.71359 326.33389 135.65625 334.36914 135.65625 z M 182.75781 189.25977 C 192.69615 189.25977 201.6835 190.0003 209.71875 191.48047 C 217.754 192.7492 225.89392 195.07572 234.14062 198.45898 L 224.625 233.66602 C 219.97301 231.97438 214.68634 230.49334 208.76562 229.22461 C 203.05637 227.95589 195.65697 227.32227 186.56445 227.32227 C 172.81994 227.32227 161.82288 229.54189 153.57617 233.98242 C 145.54093 238.2115 139.83249 244.02685 136.44922 251.42773 C 133.06595 258.82863 131.375 267.39226 131.375 277.11914 C 131.375 287.26893 133.27781 296.04442 137.08398 303.44531 C 140.89016 310.63475 147.02231 316.23823 155.48047 320.25586 C 163.93863 324.27349 175.0387 326.28125 188.7832 326.28125 C 195.54974 326.28125 202.73922 325.85949 210.35156 325.01367 C 217.96391 323.9564 224.73163 322.3704 230.65234 320.25586 L 236.99609 356.41406 C 231.07538 358.5286 223.67404 360.32646 214.79297 361.80664 C 205.9119 363.49827 195.5504 364.34375 183.70898 364.34375 C 160.87195 364.34375 142.37054 360.53813 128.20312 352.92578 C 114.03571 345.10199 103.56731 334.63359 96.800781 321.52344 C 90.245707 308.20184 86.96875 293.4011 86.96875 277.11914 C 86.96875 265.06627 88.871562 253.75239 92.677734 243.17969 C 96.483906 232.39553 102.29925 222.98643 110.12305 214.95117 C 117.94684 206.91592 127.88462 200.67881 139.9375 196.23828 C 151.99038 191.58629 166.2644 189.25977 182.75781 189.25977 z " />
</svg>
