<?xml version="1.0" encoding="UTF-8" standalone="no"?>
<svg
   viewBox="0 0 500 500"
   version="1.1"
   id="svg2"
   sodipodi:docname="lang_en.svg"
   inkscape:version="1.4 (e7c3feb100, 2024-10-09)"
   xmlns:inkscape="http://www.inkscape.org/namespaces/inkscape"
   xmlns:sodipodi="http://sodipodi.sourceforge.net/DTD/sodipodi-0.dtd"
   xmlns="http://www.w3.org/2000/svg"
   xmlns:svg="http://www.w3.org/2000/svg">
  <sodipodi:namedview
     id="namedview2"
     pagecolor="#ffffff"
     bordercolor="#000000"
     borderopacity="0.25"
     inkscape:showpageshadow="2"
     inkscape:pageopacity="0.0"
     inkscape:pagecheckerboard="0"
     inkscape:deskcolor="#d1d1d1"
     inkscape:zoom="0.5"
     inkscape:cx="346"
     inkscape:cy="160"
     inkscape:current-layer="svg2" />
  <defs
     id="defs1">
    <style
       id="style1">.cls-1{fill:none;}.cls-2{fill:#929497;}</style>
  </defs>
  <g
     id="limit">
    <rect
       class="cls-1"
       width="500"
       height="500"
       id="rect1" />
  </g>
  <path
     id="path2"
     class="cls-2"
     d="M 73.210938 25 C 46.58596 25.01104 25.005518 46.595723 25 73.220703 L 25 426.7793 C 25.0055 453.40428 46.585959 474.98896 73.210938 475 L 426.78906 475 C 453.41404 474.989 474.99448 453.40428 475 426.7793 L 475 73.220703 C 474.99448 46.595723 453.41404 25.01104 426.78906 25 L 73.210938 25 z M 137.55859 111.55078 L 137.55859 194.96875 C 143.69076 192.00839 149.61301 190.00063 155.32227 188.94336 C 161.03152 187.88609 166.73996 187.35742 172.44922 187.35742 C 187.03955 187.35742 199.19889 191.05809 208.92578 198.45898 C 218.86411 205.64842 226.26351 215.79805 231.12695 228.9082 C 236.20185 241.8069 238.74023 257.03135 238.74023 274.58203 C 238.74023 292.34416 235.56823 307.78047 229.22461 320.89062 C 223.09244 334.00077 214.00015 344.15041 201.94727 351.33984 C 190.10585 358.31782 175.62191 361.80664 158.49414 361.80664 C 147.49853 361.80664 135.9728 360.96116 123.91992 359.26953 C 111.86704 357.5779 101.82431 355.46323 93.789062 352.92578 L 93.789062 118.8457 L 137.55859 111.55078 z M 338.96875 138.19336 L 368.78516 138.19336 L 368.78516 321.8418 L 412.55469 321.8418 L 412.55469 358 L 279.02148 358 L 279.02148 321.8418 L 325.33008 321.8418 L 325.33008 198.77539 C 318.775 203.42738 311.16375 207.65672 302.49414 211.46289 C 294.03598 215.05761 286.84649 217.9128 280.92578 220.02734 L 266.65234 183.86719 C 274.47614 180.90683 282.82792 176.99625 291.70898 172.13281 C 300.80151 167.26937 309.47205 161.98269 317.71875 156.27344 C 326.17691 150.35272 333.25949 144.32553 338.96875 138.19336 z M 163.56836 225.10156 C 158.91637 225.10156 154.15836 225.73518 149.29492 227.00391 C 144.64294 228.27263 140.73041 229.85864 137.55859 231.76172 L 137.55859 322.47656 C 140.94186 323.11092 144.43263 323.63959 148.02734 324.0625 C 151.83352 324.27395 155.00357 324.37891 157.54102 324.37891 C 168.95954 324.37891 177.94688 320.46638 184.50195 312.64258 C 191.05703 304.81878 194.33398 291.70899 194.33398 273.3125 C 194.33398 262.95125 193.1717 254.28267 190.8457 247.30469 C 188.73116 240.11525 185.3473 234.61672 180.69531 230.81055 C 176.25478 227.00437 170.54635 225.10156 163.56836 225.10156 z " />
</svg>
