<?xml version="1.0" encoding="UTF-8" standalone="no"?>
<svg
   viewBox="0 0 500 500"
   version="1.1"
   id="svg2"
   sodipodi:docname="lang_en.svg"
   inkscape:version="1.4 (e7c3feb100, 2024-10-09)"
   xmlns:inkscape="http://www.inkscape.org/namespaces/inkscape"
   xmlns:sodipodi="http://sodipodi.sourceforge.net/DTD/sodipodi-0.dtd"
   xmlns="http://www.w3.org/2000/svg"
   xmlns:svg="http://www.w3.org/2000/svg">
  <sodipodi:namedview
     id="namedview2"
     pagecolor="#ffffff"
     bordercolor="#000000"
     borderopacity="0.25"
     inkscape:showpageshadow="2"
     inkscape:pageopacity="0.0"
     inkscape:pagecheckerboard="0"
     inkscape:deskcolor="#d1d1d1"
     inkscape:zoom="0.5"
     inkscape:cx="346"
     inkscape:cy="160"
     inkscape:current-layer="svg2" />
  <defs
     id="defs1">
    <style
       id="style1">.cls-1{fill:none;}.cls-2{fill:#929497;}</style>
  </defs>
  <g
     id="limit">
    <rect
       class="cls-1"
       width="500"
       height="500"
       id="rect1" />
  </g>
  <path
     id="path2"
     class="cls-2"
     d="M 73.210938 25 C 46.58596 25.01104 25.005518 46.595723 25 73.220703 L 25 426.7793 C 25.0055 453.40428 46.585959 474.98896 73.210938 475 L 426.78906 475 C 453.41404 474.989 474.99448 453.40428 475 426.7793 L 475 73.220703 C 474.99448 46.595723 453.41404 25.01104 426.78906 25 L 73.210938 25 z M 338.96875 138.19336 L 368.78516 138.19336 L 368.78516 321.8418 L 412.55469 321.8418 L 412.55469 358 L 279.02148 358 L 279.02148 321.8418 L 325.33008 321.8418 L 325.33008 198.77539 C 318.775 203.42738 311.16375 207.65672 302.49414 211.46289 C 294.03598 215.05761 286.84649 217.9128 280.92578 220.02734 L 266.65234 183.86719 C 274.47614 180.90683 282.82792 176.99625 291.70898 172.13281 C 300.80151 167.26937 309.47205 161.98269 317.71875 156.27344 C 326.17691 150.35272 333.25949 144.32553 338.96875 138.19336 z M 183.23438 186.72266 C 193.17271 186.72266 202.15811 187.46318 210.19336 188.94336 C 218.22861 190.21209 226.37048 192.53666 234.61719 195.91992 L 225.10156 231.12695 C 220.44957 229.43532 215.16289 227.95622 209.24219 226.6875 C 203.53293 225.41877 196.13158 224.7832 187.03906 224.7832 C 173.29455 224.7832 162.29944 227.00478 154.05273 231.44531 C 146.01749 235.67439 140.30905 241.48973 136.92578 248.89062 C 133.54251 256.29151 131.84961 264.85514 131.84961 274.58203 C 131.84961 284.73182 133.75242 293.50732 137.55859 300.9082 C 141.36477 308.09764 147.49692 313.70112 155.95508 317.71875 C 164.41324 321.73637 175.51526 323.74414 189.25977 323.74414 C 196.0263 323.74414 203.21579 323.32238 210.82812 322.47656 C 218.44047 321.4193 225.20624 319.83329 231.12695 317.71875 L 237.4707 353.87695 C 231.54999 355.99149 224.1506 357.78935 215.26953 359.26953 C 206.38846 360.96116 196.02697 361.80664 184.18555 361.80664 C 161.34851 361.80664 142.84515 358.00101 128.67773 350.38867 C 114.51032 342.56487 104.04387 332.09647 97.277344 318.98633 C 90.72227 305.66473 87.445312 290.86399 87.445312 274.58203 C 87.445313 262.52915 89.348125 251.21528 93.154297 240.64258 C 96.960469 229.85842 102.77581 220.44932 110.59961 212.41406 C 118.4234 204.37882 128.36118 198.14171 140.41406 193.70117 C 152.46694 189.04919 166.74096 186.72266 183.23438 186.72266 z " />
</svg>
