<svg xmlns="http://www.w3.org/2000/svg" viewBox="0 0 500 500"><defs><style>.cls-1{fill:none;}.cls-2{fill:#f6921e;}</style></defs><g id="limit"><rect class="cls-1" width="500" height="500"/></g><g id="JS"><path class="cls-2" d="M426.79,25H73.21A48.23,48.23,0,0,0,25,73.21V426.79A48.23,48.23,0,0,0,73.21,475H426.79A48.23,48.23,0,0,0,475,426.79V73.21A48.23,48.23,0,0,0,426.79,25ZM269.89,376c0,43.79-25.72,63.78-63.18,63.78-33.85,0-53.44-17.47-63.48-38.67l34.45-20.79C184.31,392,190.33,402,204.9,402c13.86,0,22.7-5.43,22.7-26.62V231.62h42.29V376Zm100,63.78c-39.27,0-64.68-18.68-77-43.19l34.45-19.89c9,14.77,20.9,25.72,41.69,25.72,17.48,0,28.73-8.74,28.73-20.9,0-14.46-11.45-19.58-30.84-28.12l-10.55-4.52c-30.53-13-50.72-29.33-50.72-63.78,0-31.75,24.2-55.85,61.87-55.85,26.92,0,46.21,9.34,60.07,33.85l-32.95,21.09c-7.23-13-15.06-18.08-27.22-18.08-12.35,0-20.19,7.84-20.19,18.08,0,12.66,7.84,17.78,26,25.72l10.54,4.52c36,15.36,56.15,31.13,56.15,66.49,0,38-29.93,58.86-70,58.86Z"/></g></svg>