<svg xmlns="http://www.w3.org/2000/svg" xmlns:xlink="http://www.w3.org/1999/xlink" viewBox="0 0 500 500"><defs><style>.cls-1{fill:none;}.cls-2{fill:#942d32;}.cls-3{fill:url(#linear-gradient);}.cls-4{fill:#e02b2b;}.cls-5{fill:url(#linear-gradient-2);}.cls-6{fill:url(#linear-gradient-3);}.cls-7{fill:url(#linear-gradient-4);}.cls-8{fill:url(#linear-gradient-5);}.cls-9{fill:#a12930;}</style><linearGradient id="linear-gradient" x1="333.66" y1="479" x2="234.79" y2="-26.04" gradientTransform="matrix(1, 0, 0, -1, 0, 502)" gradientUnits="userSpaceOnUse"><stop offset="0.46" stop-color="#cb2123"/><stop offset="1" stop-color="#752425"/></linearGradient><linearGradient id="linear-gradient-2" x1="223.82" y1="232.36" x2="229.18" y2="361.16" gradientTransform="matrix(1, 0, 0, -1, 0, 502)" gradientUnits="userSpaceOnUse"><stop offset="0.1" stop-color="#b75e5a"/><stop offset="0.95" stop-color="#6c272d"/></linearGradient><linearGradient id="linear-gradient-3" x1="316.2" y1="186.26" x2="149.84" y2="125.88" gradientTransform="matrix(1, 0, 0, -1, 0, 502)" gradientUnits="userSpaceOnUse"><stop offset="0" stop-color="#a32424"/><stop offset="1" stop-color="#752425"/></linearGradient><linearGradient id="linear-gradient-4" x1="98.78" y1="24.8" x2="141.08" y2="147.74" gradientTransform="matrix(1, 0, 0, -1, 0, 502)" gradientUnits="userSpaceOnUse"><stop offset="0.34" stop-color="#d77670"/><stop offset="0.95" stop-color="#a62224"/></linearGradient><linearGradient id="linear-gradient-5" x1="418.8" y1="15.25" x2="332.07" y2="174.03" xlink:href="#linear-gradient-4"/></defs><g id="limit"><rect class="cls-1" width="500" height="500"/></g><g id="AutoCAD"><path class="cls-2" d="M226.41,25a2319.54,2319.54,0,0,0-141,303.52c-3.26,8.51-6.09,16.19-8.51,22.81-6.31,16.92-9.88,26.9-10.93,28.58,2.42-8.72,4.94-18,7.57-27.32q2.84-9.93,5.67-20.18C93.88,280.91,113.33,226,126,188.64A1240.35,1240.35,0,0,1,193.47,36a20.62,20.62,0,0,1,18.24-11Z"/><path class="cls-3" d="M135.19,309.81C149.06,284.49,239.34,100.14,245.43,88.9c1.37-2.63,3-4.31,4.94-4.31s4,1.58,6.31,5.47c4.2,7,43.93,89.22,56.75,118C300.82,214.49,164,287.11,135.19,309.81ZM443.33,466.09c.11,0,.11,0,.21-.1a19.72,19.72,0,0,0,7.36-21c-1.58-5.68-3.15-11.25-4.2-13.87-1.05-2.84-4.52-16.08-9.78-35.63q-9.62-28.22-20.39-56.65c-8.93-23.33-18.28-46.56-27.74-69.15-10.62-25.33-21.34-49.92-31.85-73.26C320,114.54,285.9,48.54,273.6,25H226.41a2319.54,2319.54,0,0,0-141,303.52c-3.26,8.51-6.09,16.19-8.51,22.81-6.31,16.81-9.88,26.9-10.93,28.58l-1.37,5.36c-6.72,24.49-12.19,45.83-15.66,61a19.59,19.59,0,0,0,6.52,19.34,108.38,108.38,0,0,0,16.92,5.88c6.31-21.23,27.54-75,33-89.43l.53-1.16v-.11c3.67-10,10-24.69,15.34-39.09A1334.17,1334.17,0,0,1,342.65,274.4c12.72,27.32,26.48,55.17,31.63,66.52a3.14,3.14,0,0,1,.42.84,2.16,2.16,0,0,1,.32.74c.1.21.21.52.31.73.32.63.53,1.16.74,1.58,5.68,13,32.48,67.58,40.57,86.81,3.57,8.41,6.83,17.66,9.46,25.33a24.81,24.81,0,0,1,.84,2.52c1.36,4.1,2.52,7.78,3.36,10.3a4.72,4.72,0,0,0,.11.53h.1Z"/><path class="cls-4" d="M436.92,395.47q-9.62-28.22-20.39-56.65c-8.93-23.33-18.28-46.56-27.74-69.15-10.62-25.33-21.34-49.92-31.85-73.26C320,114.54,285.9,48.54,273.5,25h9.85a25.23,25.23,0,0,1,22,12.8,841.27,841.27,0,0,1,48.82,103.12c5.57,13.45,12.93,29.85,19,48,8.2,24.28,20.6,51.71,28.59,79,7,24.28,13.77,48.45,19.76,70.53C427.57,360.16,432.82,379.81,436.92,395.47Z"/><path class="cls-5" d="M313.43,208.08c-11.24,6.31-17.13,10.09-29.95,16.71C271.18,190.63,260.25,161,257.31,154c-4.2-10-10.82-9-14.4,1.27-19.65,55.49-34.68,91.75-43.09,114.87-27.74,15.34-44.56,27.53-64.63,39.83h-.11C149,284.7,239.34,99.72,245.43,88.9l-.1-.11c2.73-4.62,4.2-6.51,5.46-6.51,1.79,0,3,3.47,5.89,7.78C261.41,97.1,300.72,179.6,313.43,208.08Z"/><path class="cls-6" d="M374.39,340.92c-15.66,1.37-27.22,3.16-47.82,5.36l-1.16.11C283.06,351.12,230.72,358,170.71,368l-6.09.94c-20.71,3.58-36.37,7.47-58.75,11.77,3.78-10.09,10-24.9,15.34-39v-.1A1130.83,1130.83,0,0,1,342.65,274.4C355.37,301.72,369.13,329.57,374.39,340.92Z"/><path class="cls-7" d="M164.62,369.09c-2.32,5.88-4.52,11.77-6.84,17.55-1.78,4.62-3.57,9.25-5.36,13.77-7,18.7-13.45,35.94-18.7,49.71-1.05,3.15-2.21,6.09-3.16,8.83-1.89,4.94-3.46,9.24-4.83,12.82a106.4,106.4,0,0,1-29.32,3.15c-.11.11-.21.11-.21,0-.74,0-1.58-.1-2.32-.1l-3.57-.32H90a10.11,10.11,0,0,1-1.79-.1.6.6,0,0,1-.42-.11,93.57,93.57,0,0,1-15.45-2.84c6.31-21.23,27.54-75,33-89.43l.53-1.16C128.25,376.45,143.91,372.56,164.62,369.09Z"/><path class="cls-8" d="M430.51,470.3h-.1c-7.89,1.89-13.67,2.1-25,2.31-13.76.42-21.86.52-30.58-1.89-2.1-5.78-4.52-12.51-7.36-19.76a.67.67,0,0,1-.1-.42c-2.63-7.15-5.68-15-8.83-23.23-2.1-5.36-4.31-11-6.62-16.92-4.52-11.56-9.36-23.75-14.19-36.15-3.68-9.25-7.36-18.6-11.14-28,20.6-2.31,32.05-4.1,47.71-5.36h.11c.21.53.52,1.16.63,1.58.1.21.21.52.31.73.32.63.53,1.16.74,1.58,5.68,13,32.48,67.58,40.57,86.81,3.57,8.41,6.83,17.66,9.46,25.33a24.81,24.81,0,0,1,.84,2.52c1.36,4.1,2.52,7.78,3.36,10.3C430.41,470,430.41,470.19,430.51,470.3Z"/><path class="cls-9" d="M374.6,470.72c-1.16-.32-2.31-.74-3.57-1.16a84.19,84.19,0,0,1-10.41-4.62l-.1-.11-1-.73a27.09,27.09,0,0,1-11.88-20.39A194,194,0,0,0,343.91,418a728.88,728.88,0,0,0-18.5-71.57l1-.11c8.73,21.76,17.45,43.83,25.44,64.11,2.31,5.89,4.52,11.56,6.62,16.92C364.93,444.13,370.5,459.05,374.6,470.72Z"/><path class="cls-9" d="M170.71,368c-2.73,14.08-4.83,25.85-5.57,28.9-1.16,4.62-2.1,25.75-2.63,41a30.38,30.38,0,0,1-14.29,24.59l-6.62,4.1c-3,1.26-6.41,2.52-9.88,3.57-2,.63-4,1.16-6,1.58,1.37-3.58,2.94-7.88,4.83-12.82.95-2.74,2.11-5.68,3.16-8.83,5.25-13.77,11.66-31,18.7-49.71,1.79-4.52,3.58-9.15,5.36-13.77,2.32-5.78,4.52-11.67,6.84-17.55Z"/></g></svg>