<svg xmlns="http://www.w3.org/2000/svg" viewBox="0 0 500 500"><defs><style>.cls-1{fill:none;}.cls-2{fill:#9a83a4;}</style></defs><g id="limit"><rect class="cls-1" width="500" height="500"/></g><g id="PHP"><path class="cls-2" d="M358.18,220.06l-11.62,59.88c28.33,0,52.67,4.07,59.46-30.79C412.29,216.58,390.58,220.06,358.18,220.06Z"/><path class="cls-2" d="M250,25C125.74,25,25,125.74,25,250S125.74,475,250,475,475,374.26,475,250,374.26,25,250,25ZM98.79,302.59l-7.38,38H60.28L88,197.49h60c18,0,31.22,4.67,39.45,14.17,15.77,18.15,10,54.37-12.13,74.73C155.28,305.14,133.65,302.59,98.79,302.59Zm167.61-.17c13.06-67.35,15.52-73,10.77-78-4.58-4.92-15-3.9-40.21-3.9L221,302.42h-31l27.73-143h31l-7.38,38c26.72,0,51.49-1.95,63.45,9.08,12.56,11.53,6.53,26.29-7,95.93Zm75.75.17-7.38,38H303.55l27.82-143.1h60c18,0,31.22,4.67,39.45,14.17,15.77,18.15,10,54.37-12.13,74.73C399.06,304.71,378.79,302.59,342.15,302.59Z"/><path class="cls-2" d="M114.9,220.06l-11.62,59.88c29.1,0,52.76,3.56,59.46-30.79C169,216.58,147.14,220.06,114.9,220.06Z"/></g></svg>