<svg xmlns="http://www.w3.org/2000/svg" xmlns:xlink="http://www.w3.org/1999/xlink" viewBox="0 0 500 500"><defs><style>.cls-1{fill:none;}.cls-2{fill:#414141;}.cls-3{fill:url(#linear-gradient);}.cls-4{fill:#fff;}.cls-5{opacity:0.3;isolation:isolate;}</style><linearGradient id="linear-gradient" x1="23.46" y1="565.27" x2="37.49" y2="540.18" gradientTransform="matrix(4.6, 0, 0, -4.6, 150, 2775.91)" gradientUnits="userSpaceOnUse"><stop offset="0" stop-color="#3a3a3a"/><stop offset="1" stop-color="#414141"/></linearGradient></defs><g id="limit"><rect class="cls-1" width="500" height="500"/></g><g id="Inkscape"><path id="path5167" class="cls-2" d="M238.35,472.62c-18.6-9.54-23.7-35.73-48-37.05-16.57-1.25-30.44-18.1-11-28,28.32-16.31,8.34-38.49-21.15-38.49-23.88,0-47.29-3.3-69.36-11.71C67,334.78,111,329.71,125.3,323.24c26.36-13.81-9.8-38.2-23.33-41.83C79.37,276.22,55.28,279,33.35,271c-17.63-14.29-4-41.25,10.22-53.36C101.34,156.05,159.53,94.75,221.09,37c16.81-18.46,49.26-14.28,63.82,4.91C346.93,104,408.17,167,467.22,232c11.77,16.32,11.35,43-9.36,52.32-25.56,14.36-56.65,17.14-83.75,24.4-25.17,6.75-27.94,19.77-14.27,43.43,6.3,10.92,30,36.5,3.55,45.66C341.51,409,314.53,408,294.59,423c-9.21,14.74,22.73,34.37-5.24,42.25-15.31,8-34.08,12.67-51,7.35ZM196.77,185.86c.89-.55-1.27,4-.91,3Zm-112.21,229c-9-21.66,55.92-25,39.1-5.31C112.59,415.18,95.66,424.91,84.56,414.84ZM435,359.49c-27.89-8.1,10-27,23.44-21.24,24.38,1.61,18.48,23.87-7.45,23.87A75.21,75.21,0,0,1,435,359.49Z"/><path id="path5165" class="cls-3" d="M177.05,229.32C161.73,206.26,139.67,166,142.38,166c1.05,0,62.74-42.85,72.79-37.23,39.61,3.56,98.67,9,116.8,14.18,4.66,2.88,82.71,100.79,81.17,104.33-2.59,5.94-136.73,77.49-170.06,81.35-11.28,1.31-56.49-84.92-66-99.27Z"/><path id="rect4176" class="cls-4" d="M247.66,60.85c-13.57-.58-22.95,10.56-31.94,19.05-24.37,24.38-48.27,49.35-70,76.13-8.84,6.93,2.6,12.73,8,16.9,9.73,6.74,19.58,13.67,30.65,18,8.38-2.08,8.44-15.16,11.42-22.28,3-10.12,4.85-20.64,8.81-30.45,6.08,2.11,10.47,13.22,15.62,19.29,3.85,5.68,11,16.12,16.52,6,8.78-9.2,14.62-21.16,25.07-28.72,7.86.57,15,6.12,22.28,9.21,14.35,7.25,28.07,16,43.14,21.68,7.12-.28,11.75-10.18,9.16-15.92L263.51,66.31a28.32,28.32,0,0,0-15.85-5.46Z"/><path id="path5167-3" class="cls-5" d="M25.47,247.94c-1.45,8.55.38,16.93,7.88,23,21.93,8.06,46,5.28,68.62,10.46,8.71,2.33,26.75,13.26,31.51,24.43,7.2-13.77-20.14-31.48-31.51-34.53-22.6-5.19-46.69-2.4-68.62-10.46A21.64,21.64,0,0,1,25.47,247.94Zm449.19,3.11c-1.31,9.72-6.58,18.55-16.8,23.17-25.56,14.35-56.65,17.14-83.75,24.4-18.05,4.84-24.58,12.91-21.79,25.81,2-7.23,9-12.28,21.79-15.7,27.1-7.27,58.19-10.05,83.75-24.41C471.56,278.13,476.37,264.38,474.66,251.05ZM84.27,341.37c-2.66,4.12-2,9.29,4.48,16,22.07,8.41,45.48,11.71,69.37,11.71,16.49,0,30,6.94,33.76,15.91,5.47-13.27-11.41-26-33.76-26-23.89,0-47.3-3.3-69.37-11.71A26.61,26.61,0,0,1,84.27,341.37Zm387.85,2.29C469,348.23,461.68,352,451,352a75.21,75.21,0,0,1-16-2.63,23.46,23.46,0,0,1-7.07-3.12c-4.73,4.57-4.58,9.84,7.07,13.22a75.21,75.21,0,0,0,16,2.63C469.53,362.12,477.82,350.73,472.12,343.66Zm-97.33,34.76c-1.44,3.78-4.9,7-11.4,9.29-21.88,11.15-48.86,10.14-68.8,25.21-2.29,3.65-2,7.61-.8,11.62a10.57,10.57,0,0,1,.8-1.52c19.94-15.07,46.92-14.06,68.8-25.21C375.21,393.71,377,386.32,374.79,378.42Zm-251,20.84-.13.17c-10.76,5.48-27,14.82-38.13,6.12a9,9,0,0,0-1,9.29c11.1,10.07,28,.34,39.1-5.31C127.69,404.8,127,401.4,123.79,399.26Zm47.39,15.24c-5.38,9.34,6,20.08,19.12,21.07,24.35,1.32,29.45,27.51,48,37.05,16.92,5.31,35.69.62,51-7.35,12.62-3.56,13-9.51,10.54-16.32-1.56,2.47-4.78,4.6-10.54,6.22-15.31,8-34.08,12.66-51,7.35-18.6-9.54-23.7-35.73-48-37.06C181.91,424.83,174.22,420.2,171.18,414.5Z"/></g></svg>