<svg xmlns="http://www.w3.org/2000/svg" viewBox="0 0 500 500"><defs><style>.cls-1{fill:none;}.cls-2{fill:#00acc1;}.cls-3{fill:#26c6da;}.cls-4{fill:#00838f;}.cls-5{fill:#0097a7;}.cls-6{fill:#006064;}</style></defs><g id="limit"><rect class="cls-1" width="500" height="500"/></g><g id="_3DS" data-name="3DS"><path class="cls-2" d="M282.15,221.55v7.08s53.59,32.16,53.59,107.18c0,42.87-36.54,75-75,75-64.31,0-64.31-64.3-64.31-64.3V314.38l-75,10.71s-10.73,6.7-10.72,19.35C110.74,416.19,175,475,250,475c84.4,0,139.23-56.13,139.23-126.37C389.23,284.9,344.3,235.29,282.15,221.55Z"/><path class="cls-3" d="M196.41,314.38v32.15S207.13,389.4,250,389.4c75,0,65.09-71.26,64.31-75h-11.1c-1.43,14.51-15.35,42.87-53.21,42.87C209.81,357.25,196.41,314.38,196.41,314.38Z"/><path class="cls-4" d="M282.15,228.63v47.16c12.07,9,21.44,23.23,21.44,46.21,0,23.19-14.74,56.68-53.59,56.68-42.87,0-53.59-32.15-53.59-32.15s-10.71,3.68-10.71,25.12c0,34.83,26.79,60.67,72.34,60.67,45.26,0,99.14-36.22,99.14-96.51C357.18,260.79,282.15,228.63,282.15,228.63Z"/><path class="cls-5" d="M250,25c-27.39,0-55.1,8.7-77.67,22.54-34.66,22.21-58.39,58.87-61.63,101.1l0,.61a10.83,10.83,0,0,0,8.77,11.06l77,4c0-21.44,10.72-42.87,42.87-42.87s53.59,21.43,53.59,42.87c0,10.72-53.59,42.87-107.17,53.59v42.87s21.43,21.43,64.3,21.43c76.95,0,119.46-74.13,119.46-135.53C369.46,72.7,309,25,250,25Z"/><path class="cls-6" d="M239.28,132.18c42.87,0,53.59,32.15,53.59,32.15,0-42.87-30.46-53.1-48.23-53.59-18-.5-48.23,10.72-48.23,53.59C199,141.66,217.85,132.18,239.28,132.18Z"/><path class="cls-4" d="M250,282.22c64.31,0,94.27-30.45,94.27-30.45s-28.62,18.4-60.78,18.4c-38.85,0-54.92-20.1-54.92-20.1s-14.74,5.36-42.87,10.72C185.7,260.79,207.13,282.22,250,282.22Z"/><path class="cls-3" d="M250,25a143.46,143.46,0,0,0-77.6,22.62c5.38-3,23.85-11.9,56.17-11.9,38.85,0,107.17,21.43,107.17,100.48,0,81.72-107.17,113.87-107.17,113.87s16.07,20.1,54.92,20.1c32.16,0,60.78-18.4,60.78-18.4C372,230.11,389.33,198,389.33,159,389.33,85,327,25,250,25Z"/></g></svg>