<svg xmlns="http://www.w3.org/2000/svg" viewBox="0 0 500 500"><defs><style>.cls-1{fill:none;}.cls-2,.cls-3,.cls-4,.cls-5,.cls-6,.cls-7{fill-rule:evenodd;}.cls-2{opacity:0.2;}.cls-2,.cls-4,.cls-7{isolation:isolate;}.cls-3{fill:#6c5a42;}.cls-4,.cls-5{fill:#fff;}.cls-4{opacity:0.1;}.cls-6{fill:#3f3f3f;}.cls-7{opacity:0.3;}</style></defs><g id="limit"><rect class="cls-1" width="500" height="500"/></g><g id="GIMP"><path class="cls-2" d="M460.06,77.73c-3.73-.6-7.07,1.51-9.08,3.9a26.37,26.37,0,0,0-4.63,9.1c-2.1,6.47-9.82,30.48-37.66,54.22s-75.86,50.28-159.07,52.43C199,198,164.13,176.23,144,136.3c-5-10-13.95-28.53-13.95-16.72v18.27l-.26,94.54.52,1.25s4.53,10.07-.26,23.63-22.1,33.37-64.31,46l-5.16,1.53,1,5.44c2.34,13.16,11.67,26.66,25.45,40.47s32.23,27.79,53.71,40.42c43,25.27,98,45.24,151.45,46.17s105.77-17.76,140.39-69.54S484,221.69,470.17,93h0a26.36,26.36,0,0,0-2.62-9.2c-1.39-2.64-3.75-5.37-7.47-6Z"/><path class="cls-3" d="M460.06,62.73c-3.73-.6-7.07,1.51-9.08,3.9a26.37,26.37,0,0,0-4.63,9.1c-2.1,6.47-9.82,30.48-37.66,54.22s-75.86,50.28-159.07,52.43C199,183,164.13,153.73,144,113.8c-5-10-13.95-28.53-13.95-16.71v18.26l-.26,102,.52,1.25s4.53,10.07-.26,23.63-22.1,33.37-64.31,46l-5.16,1.53,1,5.44c2.34,13.16,11.67,26.66,25.45,40.47s32.23,27.79,53.71,40.42c43,25.27,98,45.24,151.45,46.17s105.77-17.76,140.39-69.54S484,206.69,470.17,78h0a26.36,26.36,0,0,0-2.62-9.2c-1.39-2.64-3.75-5.37-7.47-6Z"/><path class="cls-4" d="M460.06,62.73c-3.73-.6-7.07,1.5-9.08,3.89a26.43,26.43,0,0,0-4.63,9.11c-2.1,6.47-9.81,30.47-37.65,54.2s-75.87,50.3-159.08,52.45C199,183,164.12,153.72,144,113.79c-5-10-13.95-28.51-13.95-16.7v15c0-11.81,8.91,6.74,13.95,16.7C164.12,168.72,199,198,249.62,197.38c83.21-2.15,131.24-28.71,159.08-52.45s35.55-47.73,37.65-54.2A26.43,26.43,0,0,1,451,81.62c2-2.39,5.35-4.49,9.08-3.89v.08c3.72.59,6.07,3.34,7.47,6a26.36,26.36,0,0,1,2.61,9.2h0a802.11,802.11,0,0,1,4.6,80.71A784.15,784.15,0,0,0,470.17,78h0a26.36,26.36,0,0,0-2.61-9.2c-1.4-2.64-3.75-5.39-7.47-6ZM130,115.34l-.26,102,0,.08.23-87.13Zm1.11,121.79a34.22,34.22,0,0,1-1.11,5.16c-4.79,13.56-22.09,33.35-64.31,46l-5.15,1.53,1,5.45a45.74,45.74,0,0,0,2.58,8.49l1.61-.47c42.22-12.67,59.52-32.46,64.31-46C133.55,247.23,132.16,240.67,131.11,237.13Z"/><path class="cls-2" d="M280,182.38c-14.84,0-29.76,4.9-41.12,15S220,222.86,220,242.39s7.51,34.89,18.87,45,26.28,15,41.12,15,29.76-4.91,41.12-15,18.89-25.46,18.89-45-7.53-34.92-18.89-45S294.83,182.38,280,182.38Z"/><path class="cls-2" d="M175,182.38c-14.84,0-29.76,4.9-41.12,15S115,222.86,115,242.39s7.51,34.89,18.87,45,26.28,15,41.12,15,29.76-4.91,41.12-15,18.89-25.46,18.89-45-7.53-34.92-18.89-45S189.83,182.38,175,182.38Z"/><path class="cls-5" d="M175,167.38c-14.84,0-29.76,4.9-41.12,15S115,207.86,115,227.39s7.51,34.89,18.87,45,26.28,15,41.12,15,29.76-4.91,41.12-15,18.89-25.46,18.89-45-7.53-34.92-18.89-45S189.83,167.38,175,167.38Z"/><path class="cls-6" d="M190,212.38a30.85,30.85,0,0,0-20.51,7.51C163.77,225,160,232.82,160,242.38s3.77,17.39,9.49,22.48a31.73,31.73,0,0,0,41,0c5.72-5.09,9.49-12.93,9.49-22.48s-3.77-17.4-9.49-22.49A30.85,30.85,0,0,0,190,212.38Z"/><path class="cls-7" d="M205,347.36c21.66,0,41.4,1.29,59.31,0,29.75-2.18,55.89,0,69.11-12.08a78.55,78.55,0,0,1-8.42-17.9s18.09,8.15,26.83,21.48-9.55,21.48-11.83,38.49c-5.08-14.94-1.76-20.54-3.05-26.48-9.22,15.08-25.11,25.89-46.49,26.48-22.75.62-51.71-15.88-85.46-30Z"/><path class="cls-2" d="M69.74,227.38a47.87,47.87,0,0,0-7.81.58,42.15,42.15,0,0,0-18.44,7.75c-21.61,16-27.3,52.36-.61,90.4s62,43.95,83.62,27.92,27.32-52.36.63-90.4c-17.52-25-38.75-36.08-57.39-36.25Z"/><path class="cls-6" d="M69.74,212.38a47.87,47.87,0,0,0-7.81.58,42.15,42.15,0,0,0-18.44,7.75c-21.61,16-27.3,52.36-.61,90.4s62,43.95,83.62,27.92,27.32-52.36.63-90.4c-17.52-25-38.75-36.08-57.39-36.25Z"/><path class="cls-5" d="M280,167.38c-14.84,0-29.76,4.9-41.12,15S220,207.86,220,227.39s7.51,34.89,18.87,45,26.28,15,41.12,15,29.76-4.91,41.12-15,18.89-25.46,18.89-45-7.53-34.92-18.89-45S294.83,167.38,280,167.38Z"/><path class="cls-6" d="M295,212.38a30.85,30.85,0,0,0-20.51,7.51C268.77,225,265,232.82,265,242.38s3.77,17.39,9.49,22.48a31.73,31.73,0,0,0,41,0c5.72-5.09,9.49-12.93,9.49-22.48s-3.77-17.4-9.49-22.49A30.85,30.85,0,0,0,295,212.38Z"/><path class="cls-4" d="M69.74,212.38a49.18,49.18,0,0,0-7.83.58,42.21,42.21,0,0,0-18.42,7.76C30.17,230.6,23,248.21,25.62,269.15c1.57-14.2,7.9-26,17.87-33.43A42.21,42.21,0,0,1,61.91,228a49.18,49.18,0,0,1,7.83-.58c18.63.16,39.87,11.27,57.39,36.24,10.24,14.6,15.62,28.93,17.25,42,1.85-16.6-2.87-36.49-17.25-57C109.61,223.65,88.37,212.54,69.74,212.38Z"/></g></svg>